<?xml version="1.0" standalone="no"?>
<!DOCTYPE svg PUBLIC "-//W3C//DTD SVG 20010904//EN"
 "http://www.w3.org/TR/2001/REC-SVG-20010904/DTD/svg10.dtd">
<svg version="1.0" xmlns="http://www.w3.org/2000/svg"
 width="350.000000pt" height="350.000000pt" viewBox="0 0 350.000000 350.000000"
 preserveAspectRatio="xMidYMid meet">

<g transform="translate(0.000000,350.000000) scale(0.100000,-0.100000)"
fill="#000000" stroke="none">
<path d="M1550 3185 c0 -2 42 -80 94 -172 314 -564 314 -562 330 -658 16 -94
121 -783 206 -1350 68 -451 79 -514 100 -561 27 -63 83 -118 148 -147 57 -26
63 -26 342 -32 157 -3 385 -8 508 -10 l222 -6 0 24 c0 22 -6 25 -52 31 -164
21 -402 86 -534 146 -46 21 -72 41 -103 80 -134 170 -273 629 -425 1407 -61
312 -75 352 -151 422 -58 53 -115 79 -192 87 l-60 7 -58 256 c-32 141 -61 262
-65 270 -7 13 -310 215 -310 206z"/>
<path d="M1360 2954 c0 -87 4 -164 8 -169 14 -21 93 -77 99 -71 3 3 1 37 -6
75 -13 83 -14 141 -2 160 6 10 -6 35 -41 85 -28 39 -52 73 -54 75 -2 2 -4 -67
-4 -155z"/>
<path d="M1719 2554 c-11 -14 -8 -20 21 -44 19 -16 48 -36 64 -46 27 -16 26
-14 -15 45 -23 33 -46 61 -50 61 -3 0 -13 -7 -20 -16z"/>
</g>
</svg>
